<svg width="25" height="25" viewBox="0 0 25 25" fill="none" xmlns="http://www.w3.org/2000/svg">
<path d="M16.7007 2.10772L8.32074 2.111C4.68074 2.11243 2.51159 4.28328 2.51302 7.92328L2.5163 16.2933C2.51773 19.9433 4.68858 22.1124 8.32858 22.111L16.6986 22.1077C20.3386 22.1063 22.5077 19.9354 22.5063 16.2954L22.503 7.91545C22.5116 4.27544 20.3407 2.10629 16.7007 2.10772ZM18.2055 14.1571C18.1655 14.2471 18.1155 14.3272 18.0456 14.3972L15.0967 17.3484C14.9468 17.4984 14.7568 17.5685 14.5668 17.5686C14.3768 17.5686 14.1868 17.4987 14.0367 17.3488C13.7466 17.0589 13.7464 16.5789 14.0363 16.2888L15.7056 14.6181L7.51564 14.6213C7.10564 14.6215 6.76551 14.2816 6.76535 13.8716C6.76519 13.4616 7.10506 13.1215 7.51506 13.1213L17.5151 13.1174C17.6151 13.1174 17.7051 13.1373 17.8051 13.1773C17.9851 13.2572 18.1352 13.3972 18.2152 13.5871C18.2853 13.7671 18.2854 13.9671 18.2055 14.1571ZM17.5143 11.0974L7.51426 11.1013C7.41426 11.1014 7.32426 11.0814 7.22424 11.0414C7.04421 10.9615 6.89416 10.8216 6.81408 10.6316C6.73401 10.4516 6.73393 10.2416 6.81386 10.0616C6.86382 9.97158 6.91379 9.89156 6.98376 9.82153L9.93261 6.87037C10.2225 6.58026 10.7025 6.58007 10.9926 6.86996C11.2827 7.15984 11.2829 7.63984 10.993 7.92996L9.32368 9.60061L17.5137 9.5974C17.9237 9.59724 18.2638 9.93711 18.264 10.3471C18.2641 10.7571 17.9243 11.0972 17.5143 11.0974Z" fill="white"/>
</svg>
