<svg width="30" height="30" viewBox="0 0 30 30" fill="none" xmlns="http://www.w3.org/2000/svg">
<path d="M21.6069 6.27713L13.5124 4.10823C9.99645 3.16613 7.33875 4.70055 6.39665 8.21652L4.23034 16.3013C3.28565 19.8269 4.82007 22.4846 8.33604 23.4267L16.4208 25.5931C19.9368 26.5352 22.5945 25.0007 23.5366 21.4848L25.7055 13.3903C26.6573 9.87693 25.1228 7.21924 21.6069 6.27713ZM11.5163 14.7647L16.8807 11.6676L14.5335 11.0387C14.1375 10.9325 13.897 10.5161 14.0032 10.1201C14.1093 9.72406 14.5257 9.48365 14.9217 9.58976L19.0172 10.6872C19.1138 10.713 19.1956 10.7556 19.2818 10.8202C19.435 10.944 19.5436 11.1181 19.5717 11.3223C19.5871 11.4196 19.5805 11.5214 19.5546 11.618L18.4572 15.7135C18.3511 16.1095 17.9347 16.3499 17.5387 16.2438C17.1427 16.1377 16.9022 15.7213 17.0084 15.3253L17.6373 12.9781L12.2658 16.0629C12.0821 16.169 11.8805 16.1874 11.697 16.1383C11.5134 16.0891 11.348 15.9723 11.242 15.7886C11.0369 15.4334 11.1611 14.9698 11.5163 14.7647ZM19.6478 21.5091C17.5329 21.636 15.4068 21.4184 13.359 20.8697C11.3113 20.321 9.36115 19.4464 7.59305 18.279C7.24998 18.0525 7.15843 17.5828 7.38494 17.2398C7.61145 16.8967 8.07408 16.7929 8.42421 17.0317C11.6965 19.1922 15.6472 20.2508 19.5613 20.0158C19.9717 19.9912 20.3327 20.3054 20.3573 20.7157C20.3697 21.1331 20.0582 21.4845 19.6478 21.5091Z" fill="white"/>
</svg>
