<svg width="27" height="26" viewBox="0 0 27 26" fill="none" xmlns="http://www.w3.org/2000/svg">
<path d="M14.0302 15.4496L14.2599 15.4627C14.5893 15.4816 14.886 15.1982 14.9072 14.8288C14.9341 14.3595 14.8278 14.2933 14.5146 14.1652L14.1133 14.002L14.0302 15.4496Z" fill="white"/>
<path d="M13.9982 2.90669C8.4873 2.59055 3.75808 6.80663 3.44195 12.3176C3.12581 17.8285 7.34189 22.5577 12.8528 22.8739C18.3638 23.19 23.093 18.9739 23.4091 13.463C23.7253 7.95204 19.5092 3.22282 13.9982 2.90669ZM8.75964 17.0499C9.03256 17.356 9.00507 17.8352 8.69893 18.1081C8.54059 18.2493 8.34689 18.3083 8.15721 18.2974C7.96752 18.2865 7.78184 18.2058 7.64068 18.0474C6.26669 16.5062 5.5697 14.513 5.68825 12.4464C5.8068 10.3798 6.72714 8.47941 8.26836 7.10542C8.57449 6.83251 9.0537 6.86 9.32662 7.16613C9.59953 7.47226 9.57204 7.95148 9.26591 8.22439C8.02027 9.33488 7.28143 10.8651 7.18579 12.5323C7.09015 14.1996 7.64916 15.8042 8.75964 17.0499ZM15.0854 12.7651C16.0244 13.1596 16.4552 13.8554 16.3951 14.9036C16.3264 16.1017 15.3324 17.0163 14.1643 16.9492L13.9347 16.9361L13.9243 17.1158C13.9009 17.5251 13.542 17.8451 13.1326 17.8216C12.7233 17.7981 12.4033 17.4392 12.4268 17.0299L12.4371 16.8502L12.4072 16.8485C11.1393 16.7757 10.1622 15.6479 10.2373 14.3401C10.2607 13.9307 10.6197 13.6108 11.029 13.6342C11.4383 13.6577 11.7583 14.0166 11.7348 14.426C11.7067 14.9152 12.0438 15.3251 12.4931 15.3509L12.523 15.3526L12.6364 13.3759L11.7562 13.0049C10.8173 12.6104 10.3864 11.9146 10.4466 10.8663C10.5153 9.66832 11.5093 8.75374 12.6774 8.82075L12.907 8.83392L12.9173 8.65422C12.9408 8.24489 13.2997 7.92492 13.709 7.9484C14.1183 7.97188 14.4383 8.3308 14.4148 8.74012L14.4045 8.91983L14.4345 8.92155C15.7024 8.99428 16.6794 10.1221 16.6044 11.4299C16.5809 11.8393 16.222 12.1592 15.8127 12.1357C15.4033 12.1123 15.0834 11.7534 15.1068 11.344C15.1349 10.8548 14.7978 10.4449 14.3486 10.4191L14.3186 10.4174L14.2052 12.3941L15.0854 12.7651ZM18.5827 18.6751C18.4244 18.8163 18.2307 18.8753 18.041 18.8644C17.8513 18.8535 17.6656 18.7728 17.5245 18.6144C17.2515 18.3083 17.279 17.8291 17.5852 17.5562C18.8308 16.4457 19.5696 14.9155 19.6653 13.2482C19.7609 11.581 19.2019 9.97631 18.0914 8.73066C17.8185 8.42453 17.846 7.94532 18.1521 7.6724C18.4583 7.39948 18.9375 7.42697 19.2104 7.73311C20.5844 9.27432 21.2814 11.2675 21.1628 13.3341C21.0443 15.4007 20.1239 17.3011 18.5827 18.6751Z" fill="white"/>
<path d="M11.9542 10.9621C11.9273 11.4313 12.0337 11.4975 12.3469 11.6257L12.7482 11.7889L12.8318 10.3313L12.6021 10.3181C12.2627 10.2987 11.9754 10.5927 11.9542 10.9621Z" fill="white"/>
</svg>
