<svg width="27" height="26" viewBox="0 0 27 26" fill="none" xmlns="http://www.w3.org/2000/svg">
<path d="M14.2158 15.5755L14.4454 15.5887C14.7749 15.6076 15.0716 15.3241 15.0928 14.9548C15.1197 14.4855 15.0133 14.4193 14.7001 14.2912L14.2988 14.1279L14.2158 15.5755Z" fill="white"/>
<path d="M14.1838 3.03364C8.67284 2.71751 3.94362 6.93358 3.62749 12.4445C3.31136 17.9555 7.52744 22.6847 13.0384 23.0008C18.5493 23.3169 23.2785 19.1009 23.5947 13.5899C23.9108 8.07899 19.6947 3.34977 14.1838 3.03364ZM8.94519 17.1768C9.2181 17.483 9.19061 17.9622 8.88448 18.2351C8.72614 18.3763 8.53244 18.4353 8.34275 18.4244C8.15306 18.4135 7.96739 18.3327 7.82622 18.1744C6.45223 16.6332 5.75525 14.64 5.8738 12.5734C5.99235 10.5068 6.91269 8.60637 8.4539 7.23238C8.76004 6.95946 9.23925 6.98695 9.51216 7.29308C9.78508 7.59921 9.75759 8.07843 9.45146 8.35135C8.20581 9.46183 7.46698 10.992 7.37134 12.6593C7.2757 14.3265 7.8347 15.9312 8.94519 17.1768ZM15.271 12.8921C16.2099 13.2865 16.6408 13.9823 16.5806 15.0306C16.5119 16.2286 15.5179 17.1432 14.3498 17.0762L14.1202 17.063L14.1099 17.2427C14.0864 17.6521 13.7275 17.972 13.3182 17.9485C12.9088 17.9251 12.5889 17.5662 12.6124 17.1568L12.6227 16.9771L12.5927 16.9754C11.3248 16.9027 10.3478 15.7749 10.4228 14.467C10.4463 14.0577 10.8052 13.7377 11.2145 13.7612C11.6239 13.7847 11.9438 14.1436 11.9204 14.5529C11.8923 15.0421 12.2294 15.4521 12.6786 15.4779L12.7086 15.4796L12.822 13.5028L11.9418 13.1318C11.0028 12.7374 10.572 12.0416 10.6321 10.9933C10.7008 9.79527 11.6948 8.8807 12.8629 8.9477L13.0925 8.96088L13.1028 8.78117C13.1263 8.37184 13.4852 8.05187 13.8946 8.07535C14.3039 8.09883 14.6239 8.45775 14.6004 8.86708L14.5901 9.04678L14.62 9.0485C15.8879 9.12123 16.865 10.249 16.7899 11.5569C16.7664 11.9662 16.4075 12.2862 15.9982 12.2627C15.5889 12.2392 15.2689 11.8803 15.2924 11.471C15.3205 10.9818 14.9834 10.5718 14.5341 10.546L14.5042 10.5443L14.3908 12.5211L15.271 12.8921ZM18.7683 18.8021C18.6099 18.9432 18.4162 19.0022 18.2265 18.9914C18.0368 18.9805 17.8512 18.8997 17.71 18.7414C17.4371 18.4352 17.4646 17.956 17.7707 17.6831C19.0163 16.5726 19.7552 15.0424 19.8508 13.3752C19.9465 11.7079 19.3875 10.1033 18.277 8.85762C18.0041 8.55149 18.0315 8.07227 18.3377 7.79935C18.6438 7.52644 19.123 7.55393 19.3959 7.86006C20.7699 9.40128 21.4669 11.3945 21.3484 13.4611C21.2298 15.5277 20.3095 17.4281 18.7683 18.8021Z" fill="white"/>
<path d="M12.1398 11.09C12.1129 11.5592 12.2192 11.6254 12.5324 11.7536L12.9337 11.9168L13.0173 10.4592L12.7877 10.4461C12.4483 10.4266 12.161 10.7206 12.1398 11.09Z" fill="white"/>
</svg>
