<svg width="16" height="16" viewBox="0 0 16 16" fill="none" xmlns="http://www.w3.org/2000/svg">
<path d="M10.794 1.33398H5.20732C2.78065 1.33398 1.33398 2.78065 1.33398 5.20732V10.7873C1.33398 13.2207 2.78065 14.6673 5.20732 14.6673H10.7873C13.214 14.6673 14.6607 13.2207 14.6607 10.794V5.20732C14.6673 2.78065 13.2207 1.33398 10.794 1.33398ZM5.76065 4.76732C5.95398 4.57398 6.27398 4.57398 6.46732 4.76732L9.38732 7.68732V6.06732C9.38732 5.79398 9.61398 5.56732 9.88732 5.56732C10.1607 5.56732 10.3873 5.79398 10.3873 6.06732V8.89398C10.3873 8.96065 10.374 9.02065 10.3473 9.08732C10.294 9.20732 10.2007 9.30732 10.074 9.36065C10.014 9.38732 9.94732 9.40065 9.88065 9.40065H7.05398C6.78065 9.40065 6.55398 9.17399 6.55398 8.90065C6.55398 8.62732 6.78065 8.40065 7.05398 8.40065H8.67398L5.76065 5.47398C5.56732 5.28065 5.56732 4.96732 5.76065 4.76732ZM12.1607 11.4807C10.8207 11.9273 9.41398 12.154 8.00065 12.154C6.58732 12.154 5.18065 11.9273 3.84065 11.4807C3.58065 11.394 3.44065 11.1073 3.52732 10.8473C3.61398 10.5873 3.89398 10.4407 4.16065 10.534C6.64065 11.3607 9.36732 11.3607 11.8473 10.534C12.1073 10.4473 12.394 10.5873 12.4807 10.8473C12.5607 11.114 12.4207 11.394 12.1607 11.4807Z" fill="white"/>
</svg>
